<mxfile host="Electron" agent="Mozilla/5.0 (Windows NT 10.0; Win64; x64) AppleWebKit/537.36 (KHTML, like Gecko) draw.io/28.0.6 Chrome/138.0.7204.100 Electron/37.2.3 Safari/537.36" version="28.0.6">
  <diagram name="Page-1" id="hG1MgjT-dMW1jyqrRXRc">
    <mxGraphModel dx="1042" dy="626" grid="1" gridSize="10" guides="1" tooltips="1" connect="1" arrows="1" fold="1" page="1" pageScale="1" pageWidth="850" pageHeight="1100" math="0" shadow="0">
      <root>
        <mxCell id="0" />
        <mxCell id="1" parent="0" />
        <mxCell id="_gfVqyCNe_NveqyhTgTl-1" value="High Level Architecture" style="rounded=0;whiteSpace=wrap;html=1;fontSize=30;fontStyle=1;strokeColor=none;fillColor=none;" vertex="1" parent="1">
          <mxGeometry x="10" y="30" width="380" height="30" as="geometry" />
        </mxCell>
        <mxCell id="_gfVqyCNe_NveqyhTgTl-2" value="" style="rounded=0;whiteSpace=wrap;html=1;fillColor=none;strokeColor=light-dark(#000000,#999999);" vertex="1" parent="1">
          <mxGeometry x="50" y="130" width="140" height="400" as="geometry" />
        </mxCell>
        <mxCell id="_gfVqyCNe_NveqyhTgTl-3" value="Source" style="rounded=0;whiteSpace=wrap;html=1;fillColor=default;strokeColor=none;fontSize=15;fontStyle=1" vertex="1" parent="1">
          <mxGeometry x="60" y="120" width="120" height="30" as="geometry" />
        </mxCell>
        <mxCell id="_gfVqyCNe_NveqyhTgTl-4" value="" style="rounded=0;whiteSpace=wrap;html=1;fillColor=none;strokeColor=#6c8ebf;" vertex="1" parent="1">
          <mxGeometry x="290" y="130" width="490" height="400" as="geometry" />
        </mxCell>
        <mxCell id="_gfVqyCNe_NveqyhTgTl-5" value="Data Ware House" style="rounded=0;whiteSpace=wrap;html=1;fillColor=default;strokeColor=none;fontSize=15;fontStyle=1" vertex="1" parent="1">
          <mxGeometry x="438" y="120" width="142" height="30" as="geometry" />
        </mxCell>
        <mxCell id="_gfVqyCNe_NveqyhTgTl-6" value="" style="rounded=0;whiteSpace=wrap;html=1;fillColor=none;strokeColor=#82b366;" vertex="1" parent="1">
          <mxGeometry x="876" y="130" width="140" height="400" as="geometry" />
        </mxCell>
        <mxCell id="_gfVqyCNe_NveqyhTgTl-7" value="Consume" style="rounded=0;whiteSpace=wrap;html=1;fillColor=default;strokeColor=none;fontSize=15;fontStyle=1" vertex="1" parent="1">
          <mxGeometry x="886" y="120" width="120" height="30" as="geometry" />
        </mxCell>
        <mxCell id="_gfVqyCNe_NveqyhTgTl-8" value="Bronze Layer" style="rounded=0;html=1;fontStyle=1;fontSize=14;fillColor=light-dark(#D79B00,#A97742);strokeColor=#d79b00;textShadow=1;labelBorderColor=none;whiteSpace=wrap;fontColor=#000000;" vertex="1" parent="1">
          <mxGeometry x="310" y="160" width="120" height="30" as="geometry" />
        </mxCell>
        <mxCell id="_gfVqyCNe_NveqyhTgTl-9" value="Silver Layer" style="rounded=0;whiteSpace=wrap;html=1;fontSize=14;fontStyle=1;fillColor=light-dark(#000000,#FFFFFF);strokeColor=light-dark(#000000,#FFFFFF);fontColor=#000000;" vertex="1" parent="1">
          <mxGeometry x="470" y="160" width="120" height="30" as="geometry" />
        </mxCell>
        <mxCell id="_gfVqyCNe_NveqyhTgTl-10" value="Gold" style="rounded=0;whiteSpace=wrap;html=1;fontSize=14;fontStyle=1;fillColor=#FF9933;strokeColor=#FF8000;fontColor=#000000;" vertex="1" parent="1">
          <mxGeometry x="630" y="160" width="120" height="30" as="geometry" />
        </mxCell>
        <mxCell id="_gfVqyCNe_NveqyhTgTl-12" value="" style="rounded=0;html=1;fontStyle=1;fontSize=14;fillColor=none;strokeColor=#d79b00;textShadow=1;labelBorderColor=none;whiteSpace=wrap;fontColor=#000000;" vertex="1" parent="1">
          <mxGeometry x="310" y="216" width="120" height="290" as="geometry" />
        </mxCell>
        <mxCell id="_gfVqyCNe_NveqyhTgTl-14" value="" style="rounded=0;html=1;fontStyle=1;fontSize=14;fillColor=none;strokeColor=#FFFFFF;textShadow=1;labelBorderColor=none;whiteSpace=wrap;fontColor=#000000;" vertex="1" parent="1">
          <mxGeometry x="470" y="216" width="120" height="290" as="geometry" />
        </mxCell>
        <mxCell id="_gfVqyCNe_NveqyhTgTl-15" value="" style="rounded=0;html=1;fontStyle=1;fontSize=14;fillColor=none;strokeColor=#FF8000;textShadow=1;labelBorderColor=none;whiteSpace=wrap;fontColor=#000000;" vertex="1" parent="1">
          <mxGeometry x="630" y="216" width="120" height="290" as="geometry" />
        </mxCell>
        <mxCell id="_gfVqyCNe_NveqyhTgTl-16" value="" style="image;aspect=fixed;html=1;points=[];align=center;fontSize=12;image=img/lib/azure2/general/Folder_Blank.svg;" vertex="1" parent="1">
          <mxGeometry x="95.36" y="176" width="49.29" height="40" as="geometry" />
        </mxCell>
        <mxCell id="_gfVqyCNe_NveqyhTgTl-18" value="" style="image;aspect=fixed;html=1;points=[];align=center;fontSize=12;image=img/lib/azure2/general/File.svg;" vertex="1" parent="1">
          <mxGeometry x="133" y="202" width="16.23" height="20" as="geometry" />
        </mxCell>
        <mxCell id="_gfVqyCNe_NveqyhTgTl-19" value="" style="image;aspect=fixed;html=1;points=[];align=center;fontSize=12;image=img/lib/azure2/general/Folder_Blank.svg;" vertex="1" parent="1">
          <mxGeometry x="96" y="259" width="49.29" height="40" as="geometry" />
        </mxCell>
        <mxCell id="_gfVqyCNe_NveqyhTgTl-20" value="" style="image;aspect=fixed;html=1;points=[];align=center;fontSize=12;image=img/lib/azure2/general/File.svg;" vertex="1" parent="1">
          <mxGeometry x="133.64" y="285" width="16.23" height="20" as="geometry" />
        </mxCell>
        <mxCell id="_gfVqyCNe_NveqyhTgTl-21" value="CRM" style="rounded=0;whiteSpace=wrap;html=1;fillColor=none;strokeColor=none;fontStyle=1;fontSize=11;" vertex="1" parent="1">
          <mxGeometry x="83.64" y="219" width="69.36" height="24" as="geometry" />
        </mxCell>
        <mxCell id="_gfVqyCNe_NveqyhTgTl-22" value="ERP" style="rounded=0;whiteSpace=wrap;html=1;fillColor=none;strokeColor=none;fontStyle=1;fontSize=11;" vertex="1" parent="1">
          <mxGeometry x="87" y="305" width="69.36" height="24" as="geometry" />
        </mxCell>
        <mxCell id="_gfVqyCNe_NveqyhTgTl-23" value="" style="endArrow=none;html=1;rounded=0;entryX=0.714;entryY=0.65;entryDx=0;entryDy=0;entryPerimeter=0;exitX=0.143;exitY=0.555;exitDx=0;exitDy=0;exitPerimeter=0;strokeWidth=2;" edge="1" parent="1">
          <mxGeometry width="50" height="50" relative="1" as="geometry">
            <mxPoint x="77.01999999999998" y="344" as="sourcePoint" />
            <mxPoint x="156.96000000000004" y="344" as="targetPoint" />
          </mxGeometry>
        </mxCell>
        <mxCell id="_gfVqyCNe_NveqyhTgTl-24" value="&lt;b&gt;Object Type:&lt;/b&gt; CSV files&lt;div&gt;&lt;b style=&quot;background-color: transparent; color: light-dark(rgb(0, 0, 0), rgb(255, 255, 255));&quot;&gt;&lt;br&gt;&lt;/b&gt;&lt;/div&gt;&lt;div&gt;&lt;b style=&quot;background-color: transparent; color: light-dark(rgb(0, 0, 0), rgb(255, 255, 255));&quot;&gt;Interface:&lt;/b&gt;&lt;span style=&quot;background-color: transparent; color: light-dark(rgb(0, 0, 0), rgb(255, 255, 255));&quot;&gt; Files in folder&lt;/span&gt;&lt;/div&gt;" style="rounded=0;whiteSpace=wrap;html=1;strokeColor=none;fillColor=none;fontSize=10;" vertex="1" parent="1">
          <mxGeometry x="53.68" y="352" width="132.32" height="84" as="geometry" />
        </mxCell>
        <mxCell id="_gfVqyCNe_NveqyhTgTl-26" value="" style="endArrow=none;html=1;rounded=0;entryX=0.714;entryY=0.65;entryDx=0;entryDy=0;entryPerimeter=0;exitX=0.143;exitY=0.555;exitDx=0;exitDy=0;exitPerimeter=0;strokeWidth=2;" edge="1" parent="1">
          <mxGeometry width="50" height="50" relative="1" as="geometry">
            <mxPoint x="333.34" y="300" as="sourcePoint" />
            <mxPoint x="413.28000000000003" y="300" as="targetPoint" />
          </mxGeometry>
        </mxCell>
        <mxCell id="_gfVqyCNe_NveqyhTgTl-27" value="&lt;div style=&quot;text-align: left;&quot;&gt;&lt;b style=&quot;background-color: transparent; color: light-dark(rgb(0, 0, 0), rgb(255, 255, 255));&quot;&gt;Object Type:&lt;/b&gt;&lt;span style=&quot;background-color: transparent; color: light-dark(rgb(0, 0, 0), rgb(255, 255, 255));&quot;&gt;&amp;nbsp;Table&lt;/span&gt;&lt;/div&gt;&lt;div&gt;&lt;b style=&quot;background-color: transparent; color: light-dark(rgb(0, 0, 0), rgb(255, 255, 255));&quot;&gt;&lt;br&gt;&lt;/b&gt;&lt;/div&gt;&lt;div style=&quot;text-align: left;&quot;&gt;&lt;b style=&quot;background-color: transparent; color: light-dark(rgb(0, 0, 0), rgb(255, 255, 255));&quot;&gt;Load:&lt;/b&gt;&lt;/div&gt;&lt;div style=&quot;text-align: left;&quot;&gt;&lt;span style=&quot;background-color: transparent; color: light-dark(rgb(0, 0, 0), rgb(255, 255, 255));&quot;&gt;- Batch Processing&lt;/span&gt;&lt;/div&gt;&lt;div style=&quot;text-align: left;&quot;&gt;&lt;span style=&quot;background-color: transparent; color: light-dark(rgb(0, 0, 0), rgb(255, 255, 255));&quot;&gt;- Full load&lt;/span&gt;&lt;/div&gt;&lt;div style=&quot;text-align: left;&quot;&gt;&lt;span style=&quot;background-color: transparent; color: light-dark(rgb(0, 0, 0), rgb(255, 255, 255));&quot;&gt;- Truncate &amp;amp; Insert&lt;/span&gt;&lt;/div&gt;&lt;div style=&quot;text-align: left;&quot;&gt;&lt;b style=&quot;background-color: transparent; color: light-dark(rgb(0, 0, 0), rgb(255, 255, 255));&quot;&gt;&lt;br&gt;&lt;/b&gt;&lt;/div&gt;&lt;div style=&quot;text-align: left;&quot;&gt;&lt;b style=&quot;background-color: transparent; color: light-dark(rgb(0, 0, 0), rgb(255, 255, 255));&quot;&gt;No Transformations&lt;/b&gt;&lt;/div&gt;&lt;div style=&quot;text-align: left;&quot;&gt;&lt;b style=&quot;background-color: transparent; color: light-dark(rgb(0, 0, 0), rgb(255, 255, 255));&quot;&gt;&lt;br&gt;&lt;/b&gt;&lt;/div&gt;&lt;div style=&quot;text-align: left;&quot;&gt;&lt;b style=&quot;background-color: transparent; color: light-dark(rgb(0, 0, 0), rgb(255, 255, 255));&quot;&gt;Data Model: &lt;/b&gt;&lt;span style=&quot;background-color: transparent; color: light-dark(rgb(0, 0, 0), rgb(255, 255, 255));&quot;&gt;None (As is)&lt;/span&gt;&lt;/div&gt;" style="rounded=0;whiteSpace=wrap;html=1;strokeColor=none;fillColor=none;fontSize=10;" vertex="1" parent="1">
          <mxGeometry x="314" y="303" width="115" height="152" as="geometry" />
        </mxCell>
        <mxCell id="_gfVqyCNe_NveqyhTgTl-28" value="" style="html=1;verticalLabelPosition=bottom;align=center;labelBackgroundColor=#ffffff;verticalAlign=top;strokeWidth=2;strokeColor=#0080F0;shadow=0;dashed=0;shape=mxgraph.ios7.icons.data;" vertex="1" parent="1">
          <mxGeometry x="350" y="234" width="40" height="40" as="geometry" />
        </mxCell>
        <mxCell id="_gfVqyCNe_NveqyhTgTl-29" value="" style="html=1;verticalLabelPosition=bottom;align=center;labelBackgroundColor=#ffffff;verticalAlign=top;strokeWidth=2;strokeColor=#0080F0;shadow=0;dashed=0;shape=mxgraph.ios7.icons.data;" vertex="1" parent="1">
          <mxGeometry x="510" y="234" width="40" height="40" as="geometry" />
        </mxCell>
        <mxCell id="_gfVqyCNe_NveqyhTgTl-30" value="" style="html=1;verticalLabelPosition=bottom;align=center;labelBackgroundColor=#ffffff;verticalAlign=top;strokeWidth=2;strokeColor=#0080F0;shadow=0;dashed=0;shape=mxgraph.ios7.icons.data;" vertex="1" parent="1">
          <mxGeometry x="670" y="234" width="40" height="40" as="geometry" />
        </mxCell>
        <mxCell id="_gfVqyCNe_NveqyhTgTl-32" value="&lt;div style=&quot;text-align: left;&quot;&gt;&lt;b style=&quot;background-color: transparent; color: light-dark(rgb(0, 0, 0), rgb(255, 255, 255));&quot;&gt;Object Type:&lt;/b&gt;&lt;span style=&quot;background-color: transparent; color: light-dark(rgb(0, 0, 0), rgb(255, 255, 255));&quot;&gt;&amp;nbsp;Tables&lt;/span&gt;&lt;/div&gt;&lt;div&gt;&lt;b style=&quot;background-color: transparent; color: light-dark(rgb(0, 0, 0), rgb(255, 255, 255));&quot;&gt;&lt;br&gt;&lt;/b&gt;&lt;/div&gt;&lt;div style=&quot;text-align: left;&quot;&gt;&lt;b style=&quot;background-color: transparent; color: light-dark(rgb(0, 0, 0), rgb(255, 255, 255));&quot;&gt;Load:&lt;/b&gt;&lt;/div&gt;&lt;div style=&quot;text-align: left;&quot;&gt;&lt;span style=&quot;background-color: transparent; color: light-dark(rgb(0, 0, 0), rgb(255, 255, 255));&quot;&gt;- Batch Processing&lt;/span&gt;&lt;/div&gt;&lt;div style=&quot;text-align: left;&quot;&gt;&lt;span style=&quot;background-color: transparent; color: light-dark(rgb(0, 0, 0), rgb(255, 255, 255));&quot;&gt;- Full load&lt;/span&gt;&lt;/div&gt;&lt;div style=&quot;text-align: left;&quot;&gt;&lt;span style=&quot;background-color: transparent; color: light-dark(rgb(0, 0, 0), rgb(255, 255, 255));&quot;&gt;- Truncate &amp;amp; Insert&lt;/span&gt;&lt;/div&gt;&lt;div style=&quot;text-align: left;&quot;&gt;&lt;b style=&quot;background-color: transparent; color: light-dark(rgb(0, 0, 0), rgb(255, 255, 255));&quot;&gt;&lt;br&gt;&lt;/b&gt;&lt;/div&gt;&lt;div style=&quot;text-align: left;&quot;&gt;&lt;b style=&quot;background-color: transparent; color: light-dark(rgb(0, 0, 0), rgb(255, 255, 255));&quot;&gt;Transformations:&lt;/b&gt;&lt;/div&gt;&lt;div style=&quot;text-align: left;&quot;&gt;&lt;span style=&quot;background-color: transparent; color: light-dark(rgb(0, 0, 0), rgb(255, 255, 255));&quot;&gt;- Data cleaning&lt;/span&gt;&lt;/div&gt;&lt;div style=&quot;text-align: left;&quot;&gt;&lt;span style=&quot;background-color: transparent; color: light-dark(rgb(0, 0, 0), rgb(255, 255, 255));&quot;&gt;- Data normalization&lt;/span&gt;&lt;/div&gt;&lt;div style=&quot;text-align: left;&quot;&gt;&lt;span style=&quot;background-color: transparent; color: light-dark(rgb(0, 0, 0), rgb(255, 255, 255));&quot;&gt;- Data Standardization&lt;/span&gt;&lt;/div&gt;&lt;div style=&quot;text-align: left;&quot;&gt;&lt;span style=&quot;background-color: transparent; color: light-dark(rgb(0, 0, 0), rgb(255, 255, 255));&quot;&gt;- Derived columns&lt;/span&gt;&lt;/div&gt;&lt;div style=&quot;text-align: left;&quot;&gt;&lt;span style=&quot;background-color: transparent; color: light-dark(rgb(0, 0, 0), rgb(255, 255, 255));&quot;&gt;- Data Enrichment&lt;/span&gt;&lt;/div&gt;&lt;div style=&quot;text-align: left;&quot;&gt;&lt;b style=&quot;background-color: transparent; color: light-dark(rgb(0, 0, 0), rgb(255, 255, 255));&quot;&gt;&lt;br&gt;&lt;/b&gt;&lt;/div&gt;&lt;div style=&quot;text-align: left;&quot;&gt;&lt;b style=&quot;background-color: transparent; color: light-dark(rgb(0, 0, 0), rgb(255, 255, 255));&quot;&gt;Data Model: &lt;/b&gt;&lt;span style=&quot;background-color: transparent; color: light-dark(rgb(0, 0, 0), rgb(255, 255, 255));&quot;&gt;None (As is)&lt;/span&gt;&lt;/div&gt;" style="rounded=0;whiteSpace=wrap;html=1;strokeColor=none;fillColor=none;fontSize=10;" vertex="1" parent="1">
          <mxGeometry x="475" y="333" width="115" height="152" as="geometry" />
        </mxCell>
        <mxCell id="_gfVqyCNe_NveqyhTgTl-33" value="&lt;div style=&quot;text-align: left;&quot;&gt;&lt;b style=&quot;background-color: transparent; color: light-dark(rgb(0, 0, 0), rgb(255, 255, 255));&quot;&gt;Object Type:&lt;/b&gt;&lt;span style=&quot;background-color: transparent; color: light-dark(rgb(0, 0, 0), rgb(255, 255, 255));&quot;&gt;&amp;nbsp;Views&lt;/span&gt;&lt;/div&gt;&lt;div&gt;&lt;b style=&quot;background-color: transparent; color: light-dark(rgb(0, 0, 0), rgb(255, 255, 255));&quot;&gt;&lt;br&gt;&lt;/b&gt;&lt;/div&gt;&lt;div style=&quot;text-align: left;&quot;&gt;&lt;b&gt;No Load&lt;/b&gt;&lt;/div&gt;&lt;div style=&quot;text-align: left;&quot;&gt;&lt;b style=&quot;background-color: transparent; color: light-dark(rgb(0, 0, 0), rgb(255, 255, 255));&quot;&gt;&lt;br&gt;&lt;/b&gt;&lt;/div&gt;&lt;div style=&quot;text-align: left;&quot;&gt;&lt;b style=&quot;background-color: transparent; color: light-dark(rgb(0, 0, 0), rgb(255, 255, 255));&quot;&gt;Transformations:&lt;/b&gt;&lt;/div&gt;&lt;div style=&quot;text-align: left;&quot;&gt;&lt;span style=&quot;background-color: transparent; color: light-dark(rgb(0, 0, 0), rgb(255, 255, 255));&quot;&gt;- Data Integrations&lt;/span&gt;&lt;/div&gt;&lt;div style=&quot;text-align: left;&quot;&gt;&lt;span style=&quot;background-color: transparent; color: light-dark(rgb(0, 0, 0), rgb(255, 255, 255));&quot;&gt;- Aggregations&lt;/span&gt;&lt;/div&gt;&lt;div style=&quot;text-align: left;&quot;&gt;&lt;span style=&quot;background-color: transparent; color: light-dark(rgb(0, 0, 0), rgb(255, 255, 255));&quot;&gt;- Business Logics&lt;/span&gt;&lt;/div&gt;&lt;div style=&quot;text-align: left;&quot;&gt;&lt;b style=&quot;background-color: transparent; color: light-dark(rgb(0, 0, 0), rgb(255, 255, 255));&quot;&gt;&lt;br&gt;&lt;/b&gt;&lt;/div&gt;&lt;div style=&quot;text-align: left;&quot;&gt;&lt;b style=&quot;background-color: transparent; color: light-dark(rgb(0, 0, 0), rgb(255, 255, 255));&quot;&gt;Data Model:&lt;/b&gt;&lt;/div&gt;&lt;div style=&quot;text-align: left;&quot;&gt;&lt;b style=&quot;background-color: transparent; color: light-dark(rgb(0, 0, 0), rgb(255, 255, 255));&quot;&gt;- Star Schema&lt;/b&gt;&lt;/div&gt;&lt;div style=&quot;text-align: left;&quot;&gt;&lt;b style=&quot;background-color: transparent; color: light-dark(rgb(0, 0, 0), rgb(255, 255, 255));&quot;&gt;- Flat Table&lt;/b&gt;&lt;/div&gt;&lt;div style=&quot;text-align: left;&quot;&gt;&lt;b style=&quot;background-color: transparent; color: light-dark(rgb(0, 0, 0), rgb(255, 255, 255));&quot;&gt;- Aggregated Table&lt;/b&gt;&lt;/div&gt;" style="rounded=0;whiteSpace=wrap;html=1;strokeColor=none;fillColor=none;fontSize=10;" vertex="1" parent="1">
          <mxGeometry x="624" y="317" width="115" height="152" as="geometry" />
        </mxCell>
        <mxCell id="_gfVqyCNe_NveqyhTgTl-34" value="" style="endArrow=none;html=1;rounded=0;entryX=0.714;entryY=0.65;entryDx=0;entryDy=0;entryPerimeter=0;exitX=0.143;exitY=0.555;exitDx=0;exitDy=0;exitPerimeter=0;strokeWidth=2;" edge="1" parent="1">
          <mxGeometry width="50" height="50" relative="1" as="geometry">
            <mxPoint x="490.03" y="300" as="sourcePoint" />
            <mxPoint x="569.97" y="300" as="targetPoint" />
          </mxGeometry>
        </mxCell>
        <mxCell id="_gfVqyCNe_NveqyhTgTl-35" value="" style="endArrow=none;html=1;rounded=0;entryX=0.714;entryY=0.65;entryDx=0;entryDy=0;entryPerimeter=0;exitX=0.143;exitY=0.555;exitDx=0;exitDy=0;exitPerimeter=0;strokeWidth=2;" edge="1" parent="1">
          <mxGeometry width="50" height="50" relative="1" as="geometry">
            <mxPoint x="652.53" y="300" as="sourcePoint" />
            <mxPoint x="732.47" y="300" as="targetPoint" />
          </mxGeometry>
        </mxCell>
        <mxCell id="_gfVqyCNe_NveqyhTgTl-36" value="" style="shape=flexArrow;endArrow=classic;html=1;rounded=0;fillColor=#99CCFF;endWidth=18;endSize=9.93;width=18;entryX=0.083;entryY=0.152;entryDx=0;entryDy=0;entryPerimeter=0;" edge="1" parent="1" target="_gfVqyCNe_NveqyhTgTl-12">
          <mxGeometry width="50" height="50" relative="1" as="geometry">
            <mxPoint x="179.99999999999997" y="259" as="sourcePoint" />
            <mxPoint x="245.35" y="260" as="targetPoint" />
            <Array as="points">
              <mxPoint x="205.35" y="259" />
            </Array>
          </mxGeometry>
        </mxCell>
        <mxCell id="_gfVqyCNe_NveqyhTgTl-39" value="" style="shape=flexArrow;endArrow=classic;html=1;rounded=0;fillColor=#99CCFF;endWidth=18;endSize=9.93;width=18;" edge="1" parent="1">
          <mxGeometry width="50" height="50" relative="1" as="geometry">
            <mxPoint x="414" y="259" as="sourcePoint" />
            <mxPoint x="494" y="260" as="targetPoint" />
            <Array as="points">
              <mxPoint x="439.35" y="259" />
            </Array>
          </mxGeometry>
        </mxCell>
        <mxCell id="_gfVqyCNe_NveqyhTgTl-40" value="" style="shape=flexArrow;endArrow=classic;html=1;rounded=0;fillColor=#99CCFF;endWidth=18;endSize=9.93;width=18;" edge="1" parent="1">
          <mxGeometry width="50" height="50" relative="1" as="geometry">
            <mxPoint x="569" y="260" as="sourcePoint" />
            <mxPoint x="649" y="261" as="targetPoint" />
            <Array as="points">
              <mxPoint x="594.35" y="260" />
            </Array>
          </mxGeometry>
        </mxCell>
        <mxCell id="_gfVqyCNe_NveqyhTgTl-41" value="" style="shape=flexArrow;endArrow=classic;html=1;rounded=0;fillColor=#99CCFF;endWidth=18;endSize=9.93;width=18;entryX=0.083;entryY=0.152;entryDx=0;entryDy=0;entryPerimeter=0;" edge="1" parent="1">
          <mxGeometry width="50" height="50" relative="1" as="geometry">
            <mxPoint x="761" y="259" as="sourcePoint" />
            <mxPoint x="901" y="260" as="targetPoint" />
            <Array as="points">
              <mxPoint x="786.35" y="259" />
            </Array>
          </mxGeometry>
        </mxCell>
        <mxCell id="_gfVqyCNe_NveqyhTgTl-42" value="" style="image;aspect=fixed;html=1;points=[];align=center;fontSize=12;image=img/lib/azure2/power_platform/PowerBI.svg;" vertex="1" parent="1">
          <mxGeometry x="923.75" y="187" width="37.5" height="50" as="geometry" />
        </mxCell>
        <mxCell id="_gfVqyCNe_NveqyhTgTl-43" value="" style="sketch=0;points=[[0,0,0],[0.25,0,0],[0.5,0,0],[0.75,0,0],[1,0,0],[0,1,0],[0.25,1,0],[0.5,1,0],[0.75,1,0],[1,1,0],[0,0.25,0],[0,0.5,0],[0,0.75,0],[1,0.25,0],[1,0.5,0],[1,0.75,0]];outlineConnect=0;fontColor=#232F3E;fillColor=#8C4FFF;strokeColor=#ffffff;dashed=0;verticalLabelPosition=bottom;verticalAlign=top;align=center;html=1;fontSize=12;fontStyle=0;aspect=fixed;shape=mxgraph.aws4.resourceIcon;resIcon=mxgraph.aws4.sql_workbench;" vertex="1" parent="1">
          <mxGeometry x="915" y="305" width="55" height="55" as="geometry" />
        </mxCell>
        <mxCell id="_gfVqyCNe_NveqyhTgTl-44" value="" style="sketch=0;points=[[0,0,0],[0.25,0,0],[0.5,0,0],[0.75,0,0],[1,0,0],[0,1,0],[0.25,1,0],[0.5,1,0],[0.75,1,0],[1,1,0],[0,0.25,0],[0,0.5,0],[0,0.75,0],[1,0.25,0],[1,0.5,0],[1,0.75,0]];outlineConnect=0;fontColor=#232F3E;fillColor=#01A88D;strokeColor=#ffffff;dashed=0;verticalLabelPosition=bottom;verticalAlign=top;align=center;html=1;fontSize=12;fontStyle=0;aspect=fixed;shape=mxgraph.aws4.resourceIcon;resIcon=mxgraph.aws4.machine_learning;" vertex="1" parent="1">
          <mxGeometry x="917.75" y="419" width="50" height="50" as="geometry" />
        </mxCell>
        <mxCell id="_gfVqyCNe_NveqyhTgTl-45" value="BI &amp;amp; Reporting" style="rounded=0;whiteSpace=wrap;html=1;fillColor=none;strokeColor=none;fontStyle=1;fontSize=11;" vertex="1" parent="1">
          <mxGeometry x="908.07" y="250" width="81.93" height="24" as="geometry" />
        </mxCell>
        <mxCell id="_gfVqyCNe_NveqyhTgTl-46" value="Ad-hoc&amp;nbsp;&lt;div&gt;SQL Queries&lt;/div&gt;" style="rounded=0;whiteSpace=wrap;html=1;fillColor=none;strokeColor=none;fontStyle=1;fontSize=11;" vertex="1" parent="1">
          <mxGeometry x="904" y="367" width="81.93" height="33" as="geometry" />
        </mxCell>
        <mxCell id="_gfVqyCNe_NveqyhTgTl-47" value="Machine Learning" style="rounded=0;whiteSpace=wrap;html=1;fillColor=none;strokeColor=none;fontStyle=1;fontSize=11;" vertex="1" parent="1">
          <mxGeometry x="906" y="474" width="81.93" height="33" as="geometry" />
        </mxCell>
      </root>
    </mxGraphModel>
  </diagram>
</mxfile>
